<svg width="720" height="300" viewBox="0 0 720 300" fill="none" xmlns="http://www.w3.org/2000/svg">
<path d="M326.082 124.637V151.52H317V109.137H323.418L338.191 123.911L352.965 109.137H359.383V151.52H350.301V124.637L338.191 136.747L326.082 124.637ZM374.52 151.52H365.438V109.137H374.52V151.52ZM413.875 136.02V109.137H422.957V151.52H416.539L389.656 124.637V151.52H380.574V109.137H386.992L413.875 136.02ZM471.395 124.274V136.383C471.395 146.474 466.349 151.52 456.258 151.52H429.012V109.137H456.258C466.349 109.137 471.395 114.183 471.395 124.274ZM462.312 136.383V124.274C462.312 120.237 460.294 118.219 456.258 118.219H438.094V142.438H456.258C460.294 142.438 462.312 140.42 462.312 136.383ZM535.211 109.137V118.219H501.91V125.788H532.184V134.87H501.91V151.52H492.828V109.137H535.211ZM550.348 124.274V136.383C550.348 140.42 552.366 142.438 556.402 142.438H568.512C572.548 142.438 574.566 140.42 574.566 136.383V124.274C574.566 120.237 572.548 118.219 568.512 118.219H556.402C552.366 118.219 550.348 120.237 550.348 124.274ZM541.266 136.383V124.274C541.266 114.183 546.311 109.137 556.402 109.137H568.512C578.603 109.137 583.648 114.183 583.648 124.274V136.383C583.648 146.474 578.603 151.52 568.512 151.52H556.402C546.311 151.52 541.266 146.474 541.266 136.383ZM610.895 123.911L625.668 109.137H638.504L617.312 130.329L638.504 151.52H625.668L610.895 136.747L596.121 151.52H583.285L604.477 130.329L583.285 109.137H596.121L610.895 123.911Z" fill="#FF8427"/>
<path d="M324.416 189.792C323.136 189.792 321.912 189.6 320.744 189.216C319.576 188.816 318.656 188.304 317.984 187.68L318.872 185.808C319.512 186.368 320.328 186.832 321.32 187.2C322.312 187.568 323.344 187.752 324.416 187.752C325.392 187.752 326.184 187.64 326.792 187.416C327.4 187.192 327.848 186.888 328.136 186.504C328.424 186.104 328.568 185.656 328.568 185.16C328.568 184.584 328.376 184.12 327.992 183.768C327.624 183.416 327.136 183.136 326.528 182.928C325.936 182.704 325.28 182.512 324.56 182.352C323.84 182.192 323.112 182.008 322.376 181.8C321.656 181.576 320.992 181.296 320.384 180.96C319.792 180.624 319.312 180.176 318.944 179.616C318.576 179.04 318.392 178.304 318.392 177.408C318.392 176.544 318.616 175.752 319.064 175.032C319.528 174.296 320.232 173.712 321.176 173.28C322.136 172.832 323.352 172.608 324.824 172.608C325.8 172.608 326.768 172.736 327.728 172.992C328.688 173.248 329.52 173.616 330.224 174.096L329.432 176.016C328.712 175.536 327.952 175.192 327.152 174.984C326.352 174.76 325.576 174.648 324.824 174.648C323.88 174.648 323.104 174.768 322.496 175.008C321.888 175.248 321.44 175.568 321.152 175.968C320.88 176.368 320.744 176.816 320.744 177.312C320.744 177.904 320.928 178.376 321.296 178.728C321.68 179.08 322.168 179.36 322.76 179.568C323.368 179.776 324.032 179.968 324.752 180.144C325.472 180.304 326.192 180.488 326.912 180.696C327.648 180.904 328.312 181.176 328.904 181.512C329.512 181.848 330 182.296 330.368 182.856C330.736 183.416 330.92 184.136 330.92 185.016C330.92 185.864 330.688 186.656 330.224 187.392C329.76 188.112 329.04 188.696 328.064 189.144C327.104 189.576 325.888 189.792 324.416 189.792ZM339.538 189.744C338.258 189.744 337.122 189.464 336.13 188.904C335.138 188.344 334.354 187.576 333.778 186.6C333.202 185.608 332.914 184.488 332.914 183.24C332.914 181.976 333.202 180.856 333.778 179.88C334.354 178.904 335.138 178.144 336.13 177.6C337.122 177.04 338.258 176.76 339.538 176.76C340.802 176.76 341.93 177.04 342.922 177.6C343.93 178.144 344.714 178.904 345.274 179.88C345.85 180.84 346.138 181.96 346.138 183.24C346.138 184.504 345.85 185.624 345.274 186.6C344.714 187.576 343.93 188.344 342.922 188.904C341.93 189.464 340.802 189.744 339.538 189.744ZM339.538 187.728C340.354 187.728 341.082 187.544 341.722 187.176C342.378 186.808 342.89 186.288 343.258 185.616C343.626 184.928 343.81 184.136 343.81 183.24C343.81 182.328 343.626 181.544 343.258 180.888C342.89 180.216 342.378 179.696 341.722 179.328C341.082 178.96 340.354 178.776 339.538 178.776C338.722 178.776 337.994 178.96 337.354 179.328C336.714 179.696 336.202 180.216 335.818 180.888C335.434 181.544 335.242 182.328 335.242 183.24C335.242 184.136 335.434 184.928 335.818 185.616C336.202 186.288 336.714 186.808 337.354 187.176C337.994 187.544 338.722 187.728 339.538 187.728ZM349.661 189.6V175.752C349.661 174.504 350.021 173.512 350.741 172.776C351.477 172.024 352.517 171.648 353.861 171.648C354.357 171.648 354.829 171.712 355.277 171.84C355.741 171.952 356.133 172.136 356.453 172.392L355.757 174.144C355.517 173.952 355.245 173.808 354.941 173.712C354.637 173.6 354.317 173.544 353.981 173.544C353.309 173.544 352.797 173.736 352.445 174.12C352.093 174.488 351.917 175.04 351.917 175.776V177.48L351.965 178.536V189.6H349.661ZM347.501 178.776V176.88H355.613V178.776H347.501ZM362.154 189.744C360.874 189.744 359.882 189.4 359.178 188.712C358.474 188.024 358.122 187.04 358.122 185.76V174.096H360.426V185.664C360.426 186.352 360.594 186.88 360.93 187.248C361.282 187.616 361.778 187.8 362.418 187.8C363.138 187.8 363.738 187.6 364.218 187.2L364.938 188.856C364.586 189.16 364.162 189.384 363.666 189.528C363.186 189.672 362.682 189.744 362.154 189.744ZM355.962 178.776V176.88H364.074V178.776H355.962ZM370.177 189.6L365.449 176.88H367.633L371.833 188.4H370.801L375.169 176.88H377.113L381.385 188.4H380.377L384.673 176.88H386.737L381.985 189.6H379.777L375.769 179.088H376.441L372.385 189.6H370.177ZM396.572 189.6V186.912L396.452 186.408V181.824C396.452 180.848 396.164 180.096 395.588 179.568C395.028 179.024 394.18 178.752 393.044 178.752C392.292 178.752 391.556 178.88 390.836 179.136C390.116 179.376 389.508 179.704 389.012 180.12L388.052 178.392C388.708 177.864 389.492 177.464 390.404 177.192C391.332 176.904 392.3 176.76 393.308 176.76C395.052 176.76 396.396 177.184 397.34 178.032C398.284 178.88 398.756 180.176 398.756 181.92V189.6H396.572ZM392.396 189.744C391.452 189.744 390.62 189.584 389.9 189.264C389.196 188.944 388.652 188.504 388.268 187.944C387.884 187.368 387.692 186.72 387.692 186C387.692 185.312 387.852 184.688 388.172 184.128C388.508 183.568 389.044 183.12 389.78 182.784C390.532 182.448 391.54 182.28 392.804 182.28H396.836V183.936H392.9C391.748 183.936 390.972 184.128 390.572 184.512C390.172 184.896 389.972 185.36 389.972 185.904C389.972 186.528 390.22 187.032 390.716 187.416C391.212 187.784 391.9 187.968 392.78 187.968C393.644 187.968 394.396 187.776 395.036 187.392C395.692 187.008 396.164 186.448 396.452 185.712L396.908 187.296C396.604 188.048 396.068 188.648 395.3 189.096C394.532 189.528 393.564 189.744 392.396 189.744ZM403.02 189.6V176.88H405.228V180.336L405.012 179.472C405.364 178.592 405.956 177.92 406.788 177.456C407.62 176.992 408.644 176.76 409.86 176.76V178.992C409.764 178.976 409.668 178.968 409.572 178.968C409.492 178.968 409.412 178.968 409.332 178.968C408.1 178.968 407.124 179.336 406.404 180.072C405.684 180.808 405.324 181.872 405.324 183.264V189.6H403.02ZM418.246 189.744C416.886 189.744 415.686 189.464 414.646 188.904C413.622 188.344 412.822 187.576 412.246 186.6C411.686 185.624 411.406 184.504 411.406 183.24C411.406 181.976 411.678 180.856 412.222 179.88C412.782 178.904 413.542 178.144 414.502 177.6C415.478 177.04 416.574 176.76 417.79 176.76C419.022 176.76 420.11 177.032 421.054 177.576C421.998 178.12 422.734 178.888 423.262 179.88C423.806 180.856 424.078 182 424.078 183.312C424.078 183.408 424.07 183.52 424.054 183.648C424.054 183.776 424.046 183.896 424.03 184.008H413.206V182.352H422.83L421.894 182.928C421.91 182.112 421.742 181.384 421.39 180.744C421.038 180.104 420.55 179.608 419.926 179.256C419.318 178.888 418.606 178.704 417.79 178.704C416.99 178.704 416.278 178.888 415.654 179.256C415.03 179.608 414.542 180.112 414.19 180.768C413.838 181.408 413.662 182.144 413.662 182.976V183.36C413.662 184.208 413.854 184.968 414.238 185.64C414.638 186.296 415.19 186.808 415.894 187.176C416.598 187.544 417.406 187.728 418.318 187.728C419.07 187.728 419.75 187.6 420.358 187.344C420.982 187.088 421.526 186.704 421.99 186.192L423.262 187.68C422.686 188.352 421.966 188.864 421.102 189.216C420.254 189.568 419.302 189.744 418.246 189.744ZM438.955 189.792C437.675 189.792 436.451 189.6 435.283 189.216C434.115 188.816 433.195 188.304 432.523 187.68L433.411 185.808C434.051 186.368 434.867 186.832 435.859 187.2C436.851 187.568 437.883 187.752 438.955 187.752C439.931 187.752 440.723 187.64 441.331 187.416C441.939 187.192 442.387 186.888 442.675 186.504C442.963 186.104 443.107 185.656 443.107 185.16C443.107 184.584 442.915 184.12 442.531 183.768C442.163 183.416 441.675 183.136 441.067 182.928C440.475 182.704 439.819 182.512 439.099 182.352C438.379 182.192 437.651 182.008 436.915 181.8C436.195 181.576 435.531 181.296 434.923 180.96C434.331 180.624 433.851 180.176 433.483 179.616C433.115 179.04 432.931 178.304 432.931 177.408C432.931 176.544 433.155 175.752 433.603 175.032C434.067 174.296 434.771 173.712 435.715 173.28C436.675 172.832 437.891 172.608 439.363 172.608C440.339 172.608 441.307 172.736 442.267 172.992C443.227 173.248 444.059 173.616 444.763 174.096L443.971 176.016C443.251 175.536 442.491 175.192 441.691 174.984C440.891 174.76 440.115 174.648 439.363 174.648C438.419 174.648 437.643 174.768 437.035 175.008C436.427 175.248 435.979 175.568 435.691 175.968C435.419 176.368 435.283 176.816 435.283 177.312C435.283 177.904 435.467 178.376 435.835 178.728C436.219 179.08 436.707 179.36 437.299 179.568C437.907 179.776 438.571 179.968 439.291 180.144C440.011 180.304 440.731 180.488 441.451 180.696C442.187 180.904 442.851 181.176 443.443 181.512C444.051 181.848 444.539 182.296 444.907 182.856C445.275 183.416 445.459 184.136 445.459 185.016C445.459 185.864 445.227 186.656 444.763 187.392C444.299 188.112 443.579 188.696 442.603 189.144C441.643 189.576 440.427 189.792 438.955 189.792ZM454.077 189.744C452.797 189.744 451.661 189.464 450.669 188.904C449.677 188.344 448.893 187.576 448.317 186.6C447.741 185.608 447.453 184.488 447.453 183.24C447.453 181.976 447.741 180.856 448.317 179.88C448.893 178.904 449.677 178.144 450.669 177.6C451.661 177.04 452.797 176.76 454.077 176.76C455.341 176.76 456.469 177.04 457.461 177.6C458.469 178.144 459.253 178.904 459.813 179.88C460.389 180.84 460.677 181.96 460.677 183.24C460.677 184.504 460.389 185.624 459.813 186.6C459.253 187.576 458.469 188.344 457.461 188.904C456.469 189.464 455.341 189.744 454.077 189.744ZM454.077 187.728C454.893 187.728 455.621 187.544 456.261 187.176C456.917 186.808 457.429 186.288 457.797 185.616C458.165 184.928 458.349 184.136 458.349 183.24C458.349 182.328 458.165 181.544 457.797 180.888C457.429 180.216 456.917 179.696 456.261 179.328C455.621 178.96 454.893 178.776 454.077 178.776C453.261 178.776 452.533 178.96 451.893 179.328C451.253 179.696 450.741 180.216 450.357 180.888C449.973 181.544 449.781 182.328 449.781 183.24C449.781 184.136 449.973 184.928 450.357 185.616C450.741 186.288 451.253 186.808 451.893 187.176C452.533 187.544 453.261 187.728 454.077 187.728ZM463.864 189.6V171.792H466.168V189.6H463.864ZM475.919 189.744C474.831 189.744 473.871 189.544 473.039 189.144C472.223 188.744 471.583 188.136 471.119 187.32C470.671 186.488 470.447 185.448 470.447 184.2V176.88H472.751V183.936C472.751 185.184 473.047 186.12 473.639 186.744C474.247 187.368 475.095 187.68 476.183 187.68C476.983 187.68 477.679 187.52 478.271 187.2C478.863 186.864 479.319 186.384 479.639 185.76C479.959 185.12 480.119 184.352 480.119 183.456V176.88H482.423V189.6H480.239V186.168L480.599 187.08C480.183 187.928 479.559 188.584 478.727 189.048C477.895 189.512 476.959 189.744 475.919 189.744ZM491.177 189.744C489.897 189.744 488.905 189.4 488.201 188.712C487.497 188.024 487.145 187.04 487.145 185.76V174.096H489.449V185.664C489.449 186.352 489.617 186.88 489.953 187.248C490.305 187.616 490.801 187.8 491.441 187.8C492.161 187.8 492.761 187.6 493.241 187.2L493.961 188.856C493.609 189.16 493.185 189.384 492.689 189.528C492.209 189.672 491.705 189.744 491.177 189.744ZM484.985 178.776V176.88H493.097V178.776H484.985ZM496.747 189.6V176.88H499.051V189.6H496.747ZM497.899 174.432C497.451 174.432 497.075 174.288 496.771 174C496.483 173.712 496.339 173.36 496.339 172.944C496.339 172.512 496.483 172.152 496.771 171.864C497.075 171.576 497.451 171.432 497.899 171.432C498.347 171.432 498.715 171.576 499.003 171.864C499.307 172.136 499.459 172.48 499.459 172.896C499.459 173.328 499.315 173.696 499.027 174C498.739 174.288 498.363 174.432 497.899 174.432ZM508.898 189.744C507.618 189.744 506.482 189.464 505.49 188.904C504.498 188.344 503.714 187.576 503.138 186.6C502.562 185.608 502.274 184.488 502.274 183.24C502.274 181.976 502.562 180.856 503.138 179.88C503.714 178.904 504.498 178.144 505.49 177.6C506.482 177.04 507.618 176.76 508.898 176.76C510.162 176.76 511.29 177.04 512.282 177.6C513.29 178.144 514.074 178.904 514.634 179.88C515.21 180.84 515.498 181.96 515.498 183.24C515.498 184.504 515.21 185.624 514.634 186.6C514.074 187.576 513.29 188.344 512.282 188.904C511.29 189.464 510.162 189.744 508.898 189.744ZM508.898 187.728C509.714 187.728 510.442 187.544 511.082 187.176C511.738 186.808 512.25 186.288 512.618 185.616C512.986 184.928 513.17 184.136 513.17 183.24C513.17 182.328 512.986 181.544 512.618 180.888C512.25 180.216 511.738 179.696 511.082 179.328C510.442 178.96 509.714 178.776 508.898 178.776C508.082 178.776 507.354 178.96 506.714 179.328C506.074 179.696 505.562 180.216 505.178 180.888C504.794 181.544 504.602 182.328 504.602 183.24C504.602 184.136 504.794 184.928 505.178 185.616C505.562 186.288 506.074 186.808 506.714 187.176C507.354 187.544 508.082 187.728 508.898 187.728ZM525.476 176.76C526.516 176.76 527.428 176.96 528.212 177.36C529.012 177.76 529.636 178.368 530.084 179.184C530.532 180 530.756 181.032 530.756 182.28V189.6H528.452V182.544C528.452 181.312 528.148 180.384 527.54 179.76C526.948 179.136 526.108 178.824 525.02 178.824C524.204 178.824 523.492 178.984 522.884 179.304C522.276 179.624 521.804 180.096 521.468 180.72C521.148 181.344 520.988 182.12 520.988 183.048V189.6H518.684V176.88H520.892V180.312L520.532 179.4C520.948 178.568 521.588 177.92 522.452 177.456C523.316 176.992 524.324 176.76 525.476 176.76ZM538.668 189.744C537.612 189.744 536.604 189.6 535.644 189.312C534.7 189.024 533.956 188.672 533.412 188.256L534.372 186.432C534.916 186.8 535.588 187.112 536.388 187.368C537.188 187.624 538.004 187.752 538.836 187.752C539.908 187.752 540.676 187.6 541.14 187.296C541.62 186.992 541.86 186.568 541.86 186.024C541.86 185.624 541.716 185.312 541.428 185.088C541.14 184.864 540.756 184.696 540.276 184.584C539.812 184.472 539.292 184.376 538.716 184.296C538.14 184.2 537.564 184.088 536.988 183.96C536.412 183.816 535.884 183.624 535.404 183.384C534.924 183.128 534.54 182.784 534.252 182.352C533.964 181.904 533.82 181.312 533.82 180.576C533.82 179.808 534.036 179.136 534.468 178.56C534.9 177.984 535.508 177.544 536.292 177.24C537.092 176.92 538.036 176.76 539.124 176.76C539.956 176.76 540.796 176.864 541.644 177.072C542.508 177.264 543.212 177.544 543.756 177.912L542.772 179.736C542.196 179.352 541.596 179.088 540.972 178.944C540.348 178.8 539.724 178.728 539.1 178.728C538.092 178.728 537.34 178.896 536.844 179.232C536.348 179.552 536.1 179.968 536.1 180.48C536.1 180.912 536.244 181.248 536.532 181.488C536.836 181.712 537.22 181.888 537.684 182.016C538.164 182.144 538.692 182.256 539.268 182.352C539.844 182.432 540.42 182.544 540.996 182.688C541.572 182.816 542.092 183 542.556 183.24C543.036 183.48 543.42 183.816 543.708 184.248C544.012 184.68 544.164 185.256 544.164 185.976C544.164 186.744 543.94 187.408 543.492 187.968C543.044 188.528 542.412 188.968 541.596 189.288C540.78 189.592 539.804 189.744 538.668 189.744Z" fill="#6B6A6A"/>
<g filter="url(#filter0_d_30_7933)">
<path opacity="0.9" d="M185.834 119.878C204.85 136.928 229.289 154.676 232.359 161.574L185.805 208.698L140.131 161.369L185.834 119.878Z" fill="url(#paint0_linear_30_7933)"/>
<path d="M140.076 78.0283C140.048 76.218 140.132 161.854 140.132 161.854C140.132 161.854 232.437 77.7969 232.635 78.0283C232.832 78.2597 232.808 162.082 232.38 161.539C231.952 160.996 140.993 79.8828 140.076 78.0283Z" fill="url(#paint1_linear_30_7933)"/>
<path d="M80 221.081L140.387 161.607L186.146 208.591L232.368 161.359L296.831 221.081H241.075L205.359 188.958C198.977 195.177 193.149 201.339 186.146 208.591L167.647 189.37L136.753 221.081H80Z" fill="#554D45"/>
<path d="M169.943 119.975L185.022 183.99C185.264 185.017 186.726 185.017 186.968 183.99L202.047 119.975" fill="#FF9240"/>
</g>
<defs>
<filter id="filter0_d_30_7933" x="61.1711" y="70.4684" width="246.957" height="173.207" filterUnits="userSpaceOnUse" color-interpolation-filters="sRGB">
<feFlood flood-opacity="0" result="BackgroundImageFix"/>
<feColorMatrix in="SourceAlpha" type="matrix" values="0 0 0 0 0 0 0 0 0 0 0 0 0 0 0 0 0 0 127 0" result="hardAlpha"/>
<feOffset dx="-3.76578" dy="7.53155"/>
<feGaussianBlur stdDeviation="7.53155"/>
<feComposite in2="hardAlpha" operator="out"/>
<feColorMatrix type="matrix" values="0 0 0 0 0 0 0 0 0 0 0 0 0 0 0 0 0 0 0.12 0"/>
<feBlend mode="normal" in2="BackgroundImageFix" result="effect1_dropShadow_30_7933"/>
<feBlend mode="normal" in="SourceGraphic" in2="effect1_dropShadow_30_7933" result="shape"/>
</filter>
<linearGradient id="paint0_linear_30_7933" x1="186.836" y1="134.147" x2="186.196" y2="216.482" gradientUnits="userSpaceOnUse">
<stop stop-color="#C56D1A"/>
<stop offset="1" stop-color="#5A3614"/>
</linearGradient>
<linearGradient id="paint1_linear_30_7933" x1="186.039" y1="77.3557" x2="186.039" y2="161.111" gradientUnits="userSpaceOnUse">
<stop stop-color="#FF8C34"/>
<stop offset="1" stop-color="#FF994C"/>
</linearGradient>
</defs>
</svg>
